<?xml version="1.0" encoding="UTF-8" standalone="no"?>
<!DOCTYPE svg PUBLIC "-//W3C//DTD SVG 1.1//EN" "http://www.w3.org/Graphics/SVG/1.1/DTD/svg11.dtd">
<svg width="100%" height="100%" viewBox="0 0 67.2 67.6" version="1.1" xmlns="http://www.w3.org/2000/svg" xmlns:xlink="http://www.w3.org/1999/xlink" xml:space="preserve" xmlns:serif="http://www.serif.com/" style="fill-rule:evenodd;clip-rule:evenodd;stroke-linejoin:round;stroke-miterlimit:2;">
    <path d="M25.2,17.9C20.6,17.9 17,21.9 17,26.9C17,31.8 20.6,35.9 25.2,35.9L41.3,35.9C43.4,35.9 45.1,37.2 45.1,39.3C45.1,41.4 43.4,42.7 41.3,42.7L25.2,42.7C16.4,42.7 9.6,35.8 9.6,27C9.6,18.2 16.5,11.3 25.2,11.3L59,11.3C52.8,4.5 43.7,0 33.6,0C15,0 0,15.4 0,33.9C0,39.3 1.3,42.5 3.5,49.2L41.9,49.2C46.5,49.2 50.4,45.5 50.4,40.5C50.4,35.5 46.5,31.3 41.9,31.3L25.8,31.3C23.7,31.3 22,30 22,27.9C22,25.8 23.7,24.5 25.8,24.5L41.9,24.5C50.7,24.5 57.8,31.4 57.8,40.1C57.8,48.8 50.6,56 41.9,56L8.6,56L5.7,67.1L17.3,63.2L17.3,63.3C22.1,66 27.7,67.6 33.6,67.6C52.1,67.6 67.2,51.7 67.2,33.2C67.2,28.1 66,24.7 64,18L25.2,18L25.2,17.9Z" style="fill:rgb(9,166,224);fill-rule:nonzero;"/>
</svg>
