<?xml version="1.0" encoding="utf-8"?>
<!-- Generator: Adobe Illustrator 26.0.3, SVG Export Plug-In . SVG Version: 6.00 Build 0)  -->
<svg version="1.1" id="Layer_1" xmlns="http://www.w3.org/2000/svg" xmlns:xlink="http://www.w3.org/1999/xlink" x="0px" y="0px"
	 viewBox="0 0 72 72" style="enable-background:new 0 0 72 72;" xml:space="preserve">
<style type="text/css">
	.st0{fill:#00A6E9;}
</style>
<path class="st0" d="M36,0C16.1,0,0,16.1,0,36c0,19.9,16.1,36,36,36c19.9,0,36-16.1,36-36C72,16.1,55.9,0,36,0z M13.3,31L39.5,4.8
	v14L11.9,46.5C8.6,41.8,9.1,35.3,13.3,31z M15.2,49.7l26-26c4.2-4.2,10.7-4.7,15.5-1.5l-26,26C26.5,52.4,20,52.9,15.2,49.7z
	 M58.6,41C58.6,41,58.6,41,58.6,41L32.5,67.2V52.9l27.6-27.6C63.4,30.1,62.9,36.7,58.6,41z"/>
</svg>
